<svg width="32" height="32" viewBox="0 0 32 32" fill="none" xmlns="http://www.w3.org/2000/svg">
<g clip-path="url(#clip0_380_20460)">
<g clip-path="url(#clip1_380_20460)">
<path d="M11 15C9.80626 15 8.66141 14.5258 7.81731 13.6817C6.97321 12.8376 6.499 11.6928 6.499 10.499C6.499 9.30531 6.97321 8.16046 7.81731 7.31636C8.66141 6.47226 9.80626 5.99805 11 5.99805C12.1937 5.99805 13.3386 6.47226 14.1827 7.31636C15.0268 8.16046 15.501 9.30531 15.501 10.499C15.501 11.6928 15.0268 12.8376 14.1827 13.6817C13.3386 14.5258 12.1937 15 11 15ZM21.5 19C20.4391 19 19.4217 18.5786 18.6716 17.8285C17.9214 17.0783 17.5 16.0609 17.5 15C17.5 13.9392 17.9214 12.9218 18.6716 12.1716C19.4217 11.4215 20.4391 11 21.5 11C22.5609 11 23.5783 11.4215 24.3284 12.1716C25.0786 12.9218 25.5 13.9392 25.5 15C25.5 16.0609 25.0786 17.0783 24.3284 17.8285C23.5783 18.5786 22.5609 19 21.5 19ZM21.5 20C22.6935 20 23.8381 20.4742 24.682 21.3181C25.5259 22.162 26 23.3066 26 24.5V25H17V24.5C17 23.3066 17.4741 22.162 18.318 21.3181C19.1619 20.4742 20.3065 20 21.5 20ZM11 16C12.3261 16 13.5979 16.5268 14.5355 17.4645C15.4732 18.4022 16 19.674 16 21V25H6V21C6 19.674 6.52678 18.4022 7.46447 17.4645C8.40215 16.5268 9.67392 16 11 16Z" fill="#3282FA"/>
<path d="M11 15C9.80626 15 8.66141 14.5258 7.81731 13.6817C6.97321 12.8376 6.499 11.6928 6.499 10.499C6.499 9.30531 6.97321 8.16046 7.81731 7.31636C8.66141 6.47226 9.80626 5.99805 11 5.99805C12.1937 5.99805 13.3386 6.47226 14.1827 7.31636C15.0268 8.16046 15.501 9.30531 15.501 10.499C15.501 11.6928 15.0268 12.8376 14.1827 13.6817C13.3386 14.5258 12.1937 15 11 15ZM21.5 19C20.4391 19 19.4217 18.5786 18.6716 17.8285C17.9214 17.0783 17.5 16.0609 17.5 15C17.5 13.9392 17.9214 12.9218 18.6716 12.1716C19.4217 11.4215 20.4391 11 21.5 11C22.5609 11 23.5783 11.4215 24.3284 12.1716C25.0786 12.9218 25.5 13.9392 25.5 15C25.5 16.0609 25.0786 17.0783 24.3284 17.8285C23.5783 18.5786 22.5609 19 21.5 19ZM21.5 20C22.6935 20 23.8381 20.4742 24.682 21.3181C25.5259 22.162 26 23.3066 26 24.5V25H17V24.5C17 23.3066 17.4741 22.162 18.318 21.3181C19.1619 20.4742 20.3065 20 21.5 20ZM11 16C12.3261 16 13.5979 16.5268 14.5355 17.4645C15.4732 18.4022 16 19.674 16 21V25H6V21C6 19.674 6.52678 18.4022 7.46447 17.4645C8.40215 16.5268 9.67392 16 11 16Z" fill="url(#paint0_linear_380_20460)" fill-opacity="0.24"/>
</g>
</g>
<defs>
<linearGradient id="paint0_linear_380_20460" x1="16" y1="6.00005" x2="16" y2="25" gradientUnits="userSpaceOnUse">
<stop stop-color="white"/>
<stop offset="1" stop-color="white" stop-opacity="0"/>
</linearGradient>
<clipPath id="clip0_380_20460">
<rect width="32" height="32" fill="white"/>
</clipPath>
<clipPath id="clip1_380_20460">
<rect width="32" height="32" fill="white"/>
</clipPath>
</defs>
</svg>
